<svg id="Component_7_1" data-name="Component 7 – 1" xmlns="http://www.w3.org/2000/svg" width="149.041" height="160.425" viewBox="0 0 149.041 160.425">
  <defs>
    <style>
      .cls-1, .cls-4 {
        fill: #fff;
      }

      .cls-1 {
        stroke: #707070;
      }

      .cls-2, .cls-3 {
        fill: #d61919;
      }

      .cls-3 {
        font-size: 1px;
        font-family: Arial-BoldMT, Arial;
        font-weight: 700;
      }

      .cls-5 {
        stroke: none;
      }

      .cls-6 {
        fill: none;
      }
    </style>
  </defs>
  <g id="Component_6_1" data-name="Component 6 – 1" transform="translate(0.96)">
    <g id="Ellipse_1" data-name="Ellipse 1" class="cls-1" transform="translate(0.04 5.196)">
      <ellipse class="cls-5" cx="74" cy="73" rx="74" ry="73"/>
      <ellipse class="cls-6" cx="74" cy="73" rx="73.5" ry="72.5"/>
    </g>
    <g id="noun_profile_2455922">
      <g id="Group_1" data-name="Group 1">
        <path id="Path_1" data-name="Path 1" class="cls-2" d="M73.842,0c40.891,0,74.239,33.848,74.239,75.853s-33.348,76.26-74.239,76.26S0,117.857,0,75.853,32.951,0,73.842,0ZM28.584,126.421A51.116,51.116,0,0,1,59.947,97.874,29.116,29.116,0,0,1,45.655,73V70.551c0-15.9,12.7-28.954,28.187-28.954s28.187,13.05,28.187,28.954V73A28.768,28.768,0,0,1,88.134,97.874,49.476,49.476,0,0,1,119.1,126.421a70.134,70.134,0,0,0,21.438-50.568c0-37.926-29.775-68.512-66.7-68.512s-66.7,30.586-66.7,68.512A70.134,70.134,0,0,0,28.584,126.421Zm84.958,4.894C107.19,115,92.1,103.584,73.842,103.584a41.976,41.976,0,0,0-39.3,27.731,66.124,66.124,0,0,0,39.3,13.05A67.321,67.321,0,0,0,113.542,131.315Zm-39.7-82.377c-11.513,0-21.041,9.787-21.041,21.614V73c0,11.826,9.528,21.614,21.041,21.614S94.883,84.824,94.883,73V70.551C94.883,58.725,85.355,48.937,73.842,48.937Z"/>
      </g>
      <text id="Created_by_Humantech" data-name="Created by Humantech" class="cls-3" transform="translate(0 157.28)"><tspan x="0" y="0">Created by Humantech</tspan></text>
      <text id="from_the_Noun_Project" data-name="from the Noun Project" class="cls-3" transform="translate(0 159.425)"><tspan x="0" y="0">from the Noun Project</tspan></text>
    </g>
  </g>
  <rect id="Rectangle_6" data-name="Rectangle 6" class="cls-4" width="13" height="5" transform="translate(0 155.196)"/>
</svg>
